<svg xmlns="http://www.w3.org/2000/svg" width="40.632" height="36.38" viewBox="0 0 40.632 36.38"><defs><style>.a{fill:#2b2b2b;}</style></defs><g transform="translate(0 0)"><path class="a" d="M20.188,35.643a1.641,1.641,0,0,1-.687-.151L.965,27.253a1.716,1.716,0,1,1,1.373-3.131l17.85,7.923,17.85-7.923a1.716,1.716,0,0,1,1.373,3.131L20.874,35.492A1.668,1.668,0,0,1,20.188,35.643Z" transform="translate(0.208 -7.501)"/><path class="a" d="M20.256,19.913a1.641,1.641,0,0,1-.687-.151L1.033,11.523a1.709,1.709,0,0,1,0-3.131L19.57.154a1.7,1.7,0,0,1,1.373,0L39.48,8.393a1.716,1.716,0,0,1,0,3.131L20.943,19.762A1.668,1.668,0,0,1,20.256,19.913Z" transform="translate(0.139 -0.009)"/><path class="a" d="M20.188,47.643a1.641,1.641,0,0,1-.687-.151L.965,39.253a1.716,1.716,0,1,1,1.373-3.131l17.85,7.923,17.85-7.923a1.716,1.716,0,0,1,1.373,3.131L20.874,47.492A1.668,1.668,0,0,1,20.188,47.643Z" transform="translate(0.208 -11.262)"/></g></svg>