<svg xmlns="http://www.w3.org/2000/svg" width="44.792" height="44.782" viewBox="0 0 44.792 44.782"><defs><style>.a{fill:#2b2b2b;}</style></defs><path class="a" d="M38.537,7.742l-4.549,4.549,2.318,2.318a2.091,2.091,0,0,1,0,2.966L34.783,19.1a18.2,18.2,0,1,1-9.1-9.089l1.522-1.522a2.091,2.091,0,0,1,2.966,0L32.491,10.8l4.549-4.549Zm5.205-2.493h-2.1a1.05,1.05,0,1,0,0,2.1h2.1a1.05,1.05,0,1,0,0-2.1ZM38.493,0a1.053,1.053,0,0,0-1.05,1.05v2.1a1.05,1.05,0,0,0,2.1,0V1.05A1.053,1.053,0,0,0,38.493,0Zm2.966,4.812,1.487-1.487a1.052,1.052,0,1,0-1.487-1.487L39.971,3.324a1.052,1.052,0,0,0,1.487,1.487Zm-5.931,0a1.052,1.052,0,0,0,1.487-1.487L35.527,1.837A1.052,1.052,0,0,0,34.04,3.324Zm5.931,2.974a1.052,1.052,0,0,0-1.487,1.487l1.487,1.487a1.052,1.052,0,0,0,1.487-1.487ZM9.8,23.8a5.6,5.6,0,0,1,5.6-5.6,1.4,1.4,0,1,0,0-2.8A8.412,8.412,0,0,0,7,23.8a1.4,1.4,0,0,0,2.8,0Z"/></svg>