<svg xmlns="http://www.w3.org/2000/svg" width="42.91" height="25.745" viewBox="0 0 42.91 25.745"><defs><style>.a{fill:#0e0dff;}</style></defs><path class="a" d="M21.5,64C-8.174,64-2.473,89.746,10.877,89.746A8.263,8.263,0,0,0,17.677,86L19.4,83.467a2.485,2.485,0,0,1,4.2,0L25.326,86a8.261,8.261,0,0,0,6.8,3.745C44.855,89.746,51.611,64,21.5,64ZM12.338,80.383a6.943,6.943,0,0,1-5.369-2.752,1.226,1.226,0,0,1,0-1.517,6.939,6.939,0,0,1,5.369-2.752,6.942,6.942,0,0,1,5.369,2.752,1.226,1.226,0,0,1,0,1.517A6.941,6.941,0,0,1,12.338,80.383Zm18.237,0a6.943,6.943,0,0,1-5.369-2.752,1.226,1.226,0,0,1,0-1.517,6.939,6.939,0,0,1,5.369-2.752,6.942,6.942,0,0,1,5.369,2.752,1.226,1.226,0,0,1,0,1.517A6.941,6.941,0,0,1,30.574,80.383Z" transform="translate(-0.001 -64)"/></svg>