<svg xmlns="http://www.w3.org/2000/svg" width="51.012" height="51.012" viewBox="0 0 51.012 51.012"><defs><style>.a{fill:#2b2b2b;}</style></defs><path class="a" d="M48.18,22.663H46.033a5.668,5.668,0,0,1-4.008-9.676l1.517-1.519a2.834,2.834,0,0,0-4.005-4L38.018,8.98a5.668,5.668,0,0,1-9.676-4.008V2.825a2.835,2.835,0,0,0-5.669,0V4.973A5.668,5.668,0,0,1,13,8.981L11.478,7.464a2.834,2.834,0,0,0-4.005,4l1.519,1.519a5.668,5.668,0,0,1-4.008,9.676H2.835a2.834,2.834,0,1,0,0,5.669H4.982A5.669,5.669,0,0,1,8.99,38.008L7.473,39.527a2.835,2.835,0,0,0,4.005,4.005L13,42.013a5.668,5.668,0,0,1,9.676,4.008v2.146a2.835,2.835,0,0,0,5.669,0V46.023a5.668,5.668,0,0,1,9.676-4.008l1.518,1.517a2.835,2.835,0,0,0,4.005-4.005l-1.519-1.518a5.669,5.669,0,0,1,4.008-9.677h2.146a2.834,2.834,0,1,0,0-5.669Z" transform="translate(0 0.01)"/></svg>